<?xml version="1.0" encoding="UTF-8"?>
<svg xmlns="http://www.w3.org/2000/svg" viewBox="0 0 1024 1024" fill="none">

  <defs>
    <linearGradient id="a-tile" x1="0" y1="0" x2="1024" y2="1024" gradientUnits="userSpaceOnUse">
      <stop stop-color="#FFFFFF"/><stop offset="1" stop-color="#F5F8FF"/>
    </linearGradient>
    <clipPath id="a-clip"><rect width="1024" height="1024" rx="228"/></clipPath>
  </defs>
  <g clip-path="url(#a-clip)">
    <rect width="1024" height="1024" fill="url(#a-tile)"/>
    <path d="M0 0 H389.12 C307.2 143.36 163.84 204.8 0 430.08 Z" fill="#DBEAFE" opacity="0.7"/>
    <path d="M1024 1024 H430.08 C614.4 880.64 880.64 819.2 1024 593.92 Z" fill="#DBEAFE" opacity="0.7"/>
  </g><defs>
  <linearGradient id="a-band" x1="16" y1="24" x2="96" y2="92" gradientUnits="userSpaceOnUse">
    <stop stop-color="#4F9BFF"/>
    <stop offset="0.5" stop-color="#2F7BF6"/>
    <stop offset="1" stop-color="#1D4ED8"/>
  </linearGradient>
  <linearGradient id="a-left" x1="24" y1="48" x2="24" y2="92" gradientUnits="userSpaceOnUse">
    <stop stop-color="#1E4FD6"/>
    <stop offset="0.45" stop-color="#2563EB"/>
    <stop offset="1" stop-color="#3B8BFF"/>
  </linearGradient>
  <linearGradient id="a-right" x1="88" y1="18" x2="88" y2="92" gradientUnits="userSpaceOnUse">
    <stop stop-color="#4F9BFF"/>
    <stop offset="1" stop-color="#1D4ED8"/>
  </linearGradient>
  <linearGradient id="a-shade" x1="88" y1="68.6" x2="95" y2="63.7" gradientUnits="userSpaceOnUse">
    <stop stop-color="#0B2A8F" stop-opacity="0.35"/>
    <stop offset="1" stop-color="#0B2A8F" stop-opacity="0"/>
  </linearGradient>
  <clipPath id="a-bclip"><rect x="0" y="0" width="74" height="120"/><path d="M74 32 a14 14 0 0 1 28 0 V78 a14 14 0 0 1 -28 0 Z"/></clipPath>
  <clipPath id="a-rclip"><path d="M74 32 a14 14 0 0 1 28 0 V78 a14 14 0 0 1 -28 0 Z"/></clipPath></defs><g transform="translate(85.91 93.52) scale(7.61)" class="nx-mark">
  <path d="M74 32 a14 14 0 0 1 28 0 V78 a14 14 0 0 1 -28 0 Z" fill="url(#a-right)"/>
  <path d="M10 72 V46 A28 28 0 0 1 60.94 29.94 L112 103 L90 96 L74 80 L38 49 V72 Z" fill="url(#a-band)" clip-path="url(#a-bclip)"/>
  <path d="M74 18 H102 V88.6 L74 48.6 Z" fill="url(#a-shade)" clip-path="url(#a-rclip)"/>
  <path d="M10 49 C12 41.5 36 40.5 38 50 V78 a14 14 0 0 1 -28 0 Z" fill="url(#a-left)"/></g>
</svg>
